<svg width="91" height="32" viewBox="0 0 91 32" fill="none" xmlns="http://www.w3.org/2000/svg">
<path d="M24.2734 13.9609C24.2734 14.638 24.1042 15.2161 23.7656 15.6953C23.4323 16.1693 22.9635 16.5312 22.3594 16.7812C21.7552 17.0312 21.0443 17.1562 20.2266 17.1562C19.7943 17.1562 19.3854 17.1354 19 17.0938C18.6146 17.0521 18.2604 16.9922 17.9375 16.9141C17.6146 16.8359 17.3307 16.7396 17.0859 16.625V15.3516C17.4766 15.513 17.9531 15.6641 18.5156 15.8047C19.0781 15.9401 19.6667 16.0078 20.2812 16.0078C20.8542 16.0078 21.3385 15.9323 21.7344 15.7812C22.1302 15.625 22.4297 15.4036 22.6328 15.1172C22.8411 14.8255 22.9453 14.4766 22.9453 14.0703C22.9453 13.6797 22.8594 13.3542 22.6875 13.0938C22.5156 12.8281 22.2292 12.5885 21.8281 12.375C21.4323 12.1562 20.8906 11.9245 20.2031 11.6797C19.7188 11.5078 19.2917 11.3203 18.9219 11.1172C18.5521 10.9089 18.2422 10.6745 17.9922 10.4141C17.7422 10.1536 17.5521 9.85156 17.4219 9.50781C17.2969 9.16406 17.2344 8.77083 17.2344 8.32812C17.2344 7.71875 17.388 7.19792 17.6953 6.76562C18.0078 6.32812 18.4375 5.99479 18.9844 5.76562C19.5365 5.53125 20.1693 5.41406 20.8828 5.41406C21.4922 5.41406 22.0547 5.47135 22.5703 5.58594C23.0911 5.70052 23.5677 5.85417 24 6.04688L23.5859 7.1875C23.1745 7.01562 22.737 6.8724 22.2734 6.75781C21.8151 6.64323 21.3411 6.58594 20.8516 6.58594C20.362 6.58594 19.9479 6.65885 19.6094 6.80469C19.276 6.94531 19.0208 7.14583 18.8438 7.40625C18.6667 7.66667 18.5781 7.97656 18.5781 8.33594C18.5781 8.73698 18.6615 9.07031 18.8281 9.33594C19 9.60156 19.2708 9.83854 19.6406 10.0469C20.0156 10.25 20.5104 10.4635 21.125 10.6875C21.7969 10.9323 22.3672 11.1927 22.8359 11.4688C23.3047 11.7396 23.6615 12.0729 23.9062 12.4688C24.151 12.8594 24.2734 13.3568 24.2734 13.9609ZM35.25 5.57812V12.9688C35.25 13.776 35.0859 14.4948 34.7578 15.125C34.4349 15.7552 33.9453 16.2526 33.2891 16.6172C32.6328 16.9766 31.8099 17.1562 30.8203 17.1562C29.4089 17.1562 28.3333 16.7734 27.5938 16.0078C26.8594 15.2422 26.4922 14.2188 26.4922 12.9375V5.57812H27.8281V12.9766C27.8281 13.9453 28.0833 14.6927 28.5938 15.2188C29.1094 15.7448 29.8776 16.0078 30.8984 16.0078C31.5964 16.0078 32.1667 15.8828 32.6094 15.6328C33.0573 15.3776 33.388 15.0234 33.6016 14.5703C33.8203 14.112 33.9297 13.5833 33.9297 12.9844V5.57812H35.25ZM38.2812 5.57812H41.5156C42.9427 5.57812 44.0156 5.79167 44.7344 6.21875C45.4531 6.64583 45.8125 7.3724 45.8125 8.39844C45.8125 8.84115 45.7266 9.23958 45.5547 9.59375C45.388 9.94271 45.1432 10.2318 44.8203 10.4609C44.4974 10.6901 44.099 10.849 43.625 10.9375V11.0156C44.125 11.0938 44.5677 11.237 44.9531 11.4453C45.3385 11.6536 45.6406 11.9453 45.8594 12.3203C46.0781 12.6953 46.1875 13.1719 46.1875 13.75C46.1875 14.4531 46.0234 15.0469 45.6953 15.5312C45.3724 16.0156 44.9141 16.3828 44.3203 16.6328C43.7266 16.8776 43.0234 17 42.2109 17H38.2812V5.57812ZM39.6094 10.4766H41.7969C42.7917 10.4766 43.4792 10.3125 43.8594 9.98438C44.2448 9.65625 44.4375 9.17708 44.4375 8.54688C44.4375 7.89583 44.2083 7.42708 43.75 7.14062C43.2969 6.85417 42.5729 6.71094 41.5781 6.71094H39.6094V10.4766ZM39.6094 11.5938V15.8672H41.9844C43 15.8672 43.7188 15.6693 44.1406 15.2734C44.5625 14.8724 44.7734 14.3333 44.7734 13.6562C44.7734 13.224 44.6771 12.8542 44.4844 12.5469C44.2969 12.2396 43.9896 12.0052 43.5625 11.8438C43.1406 11.6771 42.5755 11.5938 41.8672 11.5938H39.6094ZM53.6484 17L49.8125 6.89062H49.75C49.7708 7.10417 49.7891 7.36458 49.8047 7.67188C49.8203 7.97917 49.8333 8.3151 49.8438 8.67969C49.8542 9.03906 49.8594 9.40625 49.8594 9.78125V17H48.625V5.57812H50.5938L54.2109 15.0781H54.2656L57.9375 5.57812H59.8906V17H58.5781V9.6875C58.5781 9.34896 58.5833 9.01042 58.5938 8.67188C58.6042 8.32812 58.6172 8.00521 58.6328 7.70312C58.6484 7.39583 58.6641 7.13021 58.6797 6.90625H58.6172L54.7344 17H53.6484ZM63.0156 17V5.57812H64.3438V17H63.0156ZM70.9922 17H69.6562V6.75H66.0625V5.57812H74.5703V6.75H70.9922V17Z" fill="#1E2832"/>
<line x1="8.74228e-08" y1="31" x2="91" y2="31" stroke="#1E2832" stroke-width="2"/>
</svg>
