<svg width="643" height="32" viewBox="0 0 643 32" fill="none" xmlns="http://www.w3.org/2000/svg">
<line x1="8.74228e-08" y1="31" x2="643" y2="31.0001" stroke="black" stroke-width="2"/>
<path d="M23.625 13.3125V15H17.5781V13.3125H23.625ZM18.2344 3.625V15H16.0859V3.625H18.2344ZM22.8359 8.32031V9.96875H17.5781V8.32031H22.8359ZM23.6016 3.625V5.32031H17.5781V3.625H23.6016ZM27.0156 8.28125V15H24.9531V6.54688H26.8984L27.0156 8.28125ZM26.7109 10.4688H26.0781C26.0781 9.88021 26.1484 9.33854 26.2891 8.84375C26.4349 8.34896 26.6484 7.91927 26.9297 7.55469C27.2109 7.1849 27.5573 6.89844 27.9688 6.69531C28.3854 6.49219 28.8672 6.39062 29.4141 6.39062C29.7943 6.39062 30.1432 6.44792 30.4609 6.5625C30.7786 6.67188 31.0521 6.84635 31.2812 7.08594C31.5156 7.32031 31.6953 7.6276 31.8203 8.00781C31.9453 8.38281 32.0078 8.83333 32.0078 9.35938V15H29.9453V9.57031C29.9453 9.17448 29.888 8.86458 29.7734 8.64062C29.6641 8.41667 29.5052 8.26042 29.2969 8.17188C29.0885 8.07812 28.8385 8.03125 28.5469 8.03125C28.224 8.03125 27.9453 8.09635 27.7109 8.22656C27.4818 8.35156 27.2917 8.52604 27.1406 8.75C26.9948 8.97396 26.8854 9.23177 26.8125 9.52344C26.7448 9.8151 26.7109 10.1302 26.7109 10.4688ZM31.8516 10.0859L31 10.2422C31.0052 9.71094 31.0781 9.21354 31.2188 8.75C31.3594 8.28125 31.5651 7.8724 31.8359 7.52344C32.112 7.16927 32.4531 6.89323 32.8594 6.69531C33.2708 6.49219 33.7448 6.39062 34.2812 6.39062C34.6979 6.39062 35.0729 6.45052 35.4062 6.57031C35.7448 6.6849 36.0339 6.86979 36.2734 7.125C36.513 7.375 36.6953 7.70052 36.8203 8.10156C36.9505 8.5026 37.0156 8.99219 37.0156 9.57031V15H34.9375V9.5625C34.9375 9.15104 34.8802 8.83594 34.7656 8.61719C34.6562 8.39844 34.4974 8.2474 34.2891 8.16406C34.0807 8.07552 33.8359 8.03125 33.5547 8.03125C33.2682 8.03125 33.0182 8.08594 32.8047 8.19531C32.5964 8.29948 32.4193 8.44531 32.2734 8.63281C32.1328 8.82031 32.026 9.03906 31.9531 9.28906C31.8854 9.53385 31.8516 9.79948 31.8516 10.0859ZM43.5234 13.2031V9.30469C43.5234 9.01823 43.474 8.77083 43.375 8.5625C43.276 8.35417 43.125 8.19271 42.9219 8.07812C42.7188 7.96354 42.4609 7.90625 42.1484 7.90625C41.8724 7.90625 41.6302 7.95312 41.4219 8.04688C41.2188 8.14062 41.0625 8.27344 40.9531 8.44531C40.8438 8.61198 40.7891 8.80469 40.7891 9.02344H38.7188C38.7188 8.67448 38.8021 8.34375 38.9688 8.03125C39.1354 7.71354 39.3724 7.43229 39.6797 7.1875C39.9922 6.9375 40.3646 6.74219 40.7969 6.60156C41.2344 6.46094 41.724 6.39062 42.2656 6.39062C42.9062 6.39062 43.4766 6.5 43.9766 6.71875C44.4818 6.93229 44.8776 7.25521 45.1641 7.6875C45.4557 8.11979 45.6016 8.66406 45.6016 9.32031V13.0078C45.6016 13.4297 45.6276 13.7917 45.6797 14.0938C45.737 14.3906 45.8203 14.6484 45.9297 14.8672V15H43.8281C43.7292 14.7865 43.6536 14.5156 43.6016 14.1875C43.5495 13.8542 43.5234 13.526 43.5234 13.2031ZM43.8125 9.85156L43.8281 11.0781H42.5234C42.2005 11.0781 41.9167 11.112 41.6719 11.1797C41.4271 11.2422 41.2266 11.3359 41.0703 11.4609C40.9141 11.5807 40.7969 11.7266 40.7188 11.8984C40.6406 12.0651 40.6016 12.2552 40.6016 12.4688C40.6016 12.6771 40.6484 12.8646 40.7422 13.0312C40.8411 13.1979 40.9818 13.3307 41.1641 13.4297C41.3516 13.5234 41.5703 13.5703 41.8203 13.5703C42.1849 13.5703 42.5026 13.4974 42.7734 13.3516C43.0443 13.2005 43.2552 13.0182 43.4062 12.8047C43.5573 12.5911 43.638 12.388 43.6484 12.1953L44.2422 13.0859C44.1693 13.2995 44.0599 13.526 43.9141 13.7656C43.7682 14.0052 43.5807 14.2292 43.3516 14.4375C43.1224 14.6458 42.8464 14.8177 42.5234 14.9531C42.2005 15.0885 41.8255 15.1562 41.3984 15.1562C40.8516 15.1562 40.362 15.0469 39.9297 14.8281C39.4974 14.6094 39.1562 14.3099 38.9062 13.9297C38.6562 13.5495 38.5312 13.1172 38.5312 12.6328C38.5312 12.1849 38.6146 11.7891 38.7812 11.4453C38.9479 11.1016 39.1953 10.8125 39.5234 10.5781C39.8516 10.3385 40.2578 10.1589 40.7422 10.0391C41.2318 9.91406 41.7917 9.85156 42.4219 9.85156H43.8125ZM49.6484 6.54688V15H47.5781V6.54688H49.6484ZM47.4375 4.33594C47.4375 4.02865 47.5417 3.77344 47.75 3.57031C47.9635 3.36719 48.25 3.26562 48.6094 3.26562C48.9688 3.26562 49.2526 3.36719 49.4609 3.57031C49.6745 3.77344 49.7812 4.02865 49.7812 4.33594C49.7812 4.63802 49.6745 4.89062 49.4609 5.09375C49.2526 5.29688 48.9688 5.39844 48.6094 5.39844C48.25 5.39844 47.9635 5.29688 47.75 5.09375C47.5417 4.89062 47.4375 4.63802 47.4375 4.33594ZM53.8047 3V15H51.7344V3H53.8047ZM64.4375 5.35156L61.1953 15H58.9219L63.1719 3.625H64.625L64.4375 5.35156ZM67.1484 15L63.8906 5.35156L63.6953 3.625H65.1562L69.4297 15H67.1484ZM67 10.7734V12.4688H60.8984V10.7734H67ZM75.5156 13.2031V3H77.5938V15H75.7188L75.5156 13.2031ZM70.0859 10.875V10.7109C70.0859 10.0651 70.1589 9.47917 70.3047 8.95312C70.4557 8.42188 70.6745 7.96615 70.9609 7.58594C71.2474 7.20573 71.5938 6.91146 72 6.70312C72.4115 6.49479 72.8776 6.39062 73.3984 6.39062C73.9036 6.39062 74.3438 6.49219 74.7188 6.69531C75.099 6.89844 75.4219 7.1875 75.6875 7.5625C75.9583 7.9375 76.1745 8.38281 76.3359 8.89844C76.4974 9.40885 76.6146 9.97135 76.6875 10.5859V11.0312C76.6146 11.6302 76.4974 12.1797 76.3359 12.6797C76.1745 13.1797 75.9583 13.6172 75.6875 13.9922C75.4219 14.362 75.099 14.6484 74.7188 14.8516C74.3385 15.0547 73.8932 15.1562 73.3828 15.1562C72.8672 15.1562 72.4036 15.0495 71.9922 14.8359C71.5859 14.6224 71.2396 14.3229 70.9531 13.9375C70.6719 13.5521 70.4557 13.099 70.3047 12.5781C70.1589 12.0573 70.0859 11.4896 70.0859 10.875ZM72.1562 10.7109V10.875C72.1562 11.2396 72.1875 11.5807 72.25 11.8984C72.3125 12.2161 72.4141 12.4974 72.5547 12.7422C72.6953 12.9818 72.875 13.1693 73.0938 13.3047C73.3177 13.4401 73.5885 13.5078 73.9062 13.5078C74.3125 13.5078 74.6458 13.4193 74.9062 13.2422C75.1719 13.0599 75.3776 12.8125 75.5234 12.5C75.6693 12.1823 75.763 11.8255 75.8047 11.4297V10.2031C75.7839 9.89062 75.7292 9.60156 75.6406 9.33594C75.5573 9.07031 75.4375 8.84115 75.2812 8.64844C75.1302 8.45573 74.9427 8.30469 74.7188 8.19531C74.4948 8.08594 74.2292 8.03125 73.9219 8.03125C73.6042 8.03125 73.3333 8.10156 73.1094 8.24219C72.8854 8.3776 72.7031 8.56771 72.5625 8.8125C72.4219 9.05729 72.3177 9.34115 72.25 9.66406C72.1875 9.98698 72.1562 10.3359 72.1562 10.7109ZM84.5312 13.2031V3H86.6094V15H84.7344L84.5312 13.2031ZM79.1016 10.875V10.7109C79.1016 10.0651 79.1745 9.47917 79.3203 8.95312C79.4714 8.42188 79.6901 7.96615 79.9766 7.58594C80.263 7.20573 80.6094 6.91146 81.0156 6.70312C81.4271 6.49479 81.8932 6.39062 82.4141 6.39062C82.9193 6.39062 83.3594 6.49219 83.7344 6.69531C84.1146 6.89844 84.4375 7.1875 84.7031 7.5625C84.974 7.9375 85.1901 8.38281 85.3516 8.89844C85.513 9.40885 85.6302 9.97135 85.7031 10.5859V11.0312C85.6302 11.6302 85.513 12.1797 85.3516 12.6797C85.1901 13.1797 84.974 13.6172 84.7031 13.9922C84.4375 14.362 84.1146 14.6484 83.7344 14.8516C83.3542 15.0547 82.9089 15.1562 82.3984 15.1562C81.8828 15.1562 81.4193 15.0495 81.0078 14.8359C80.6016 14.6224 80.2552 14.3229 79.9688 13.9375C79.6875 13.5521 79.4714 13.099 79.3203 12.5781C79.1745 12.0573 79.1016 11.4896 79.1016 10.875ZM81.1719 10.7109V10.875C81.1719 11.2396 81.2031 11.5807 81.2656 11.8984C81.3281 12.2161 81.4297 12.4974 81.5703 12.7422C81.7109 12.9818 81.8906 13.1693 82.1094 13.3047C82.3333 13.4401 82.6042 13.5078 82.9219 13.5078C83.3281 13.5078 83.6615 13.4193 83.9219 13.2422C84.1875 13.0599 84.3932 12.8125 84.5391 12.5C84.6849 12.1823 84.7786 11.8255 84.8203 11.4297V10.2031C84.7995 9.89062 84.7448 9.60156 84.6562 9.33594C84.5729 9.07031 84.4531 8.84115 84.2969 8.64844C84.1458 8.45573 83.9583 8.30469 83.7344 8.19531C83.5104 8.08594 83.2448 8.03125 82.9375 8.03125C82.6198 8.03125 82.349 8.10156 82.125 8.24219C81.901 8.3776 81.7188 8.56771 81.5781 8.8125C81.4375 9.05729 81.3333 9.34115 81.2656 9.66406C81.2031 9.98698 81.1719 10.3359 81.1719 10.7109ZM90.5391 8.27344V15H88.4766V6.54688H90.4297L90.5391 8.27344ZM93.1094 6.49219L93.0781 8.41406C92.9635 8.39323 92.8333 8.3776 92.6875 8.36719C92.5469 8.35677 92.4141 8.35156 92.2891 8.35156C91.9714 8.35156 91.6927 8.39583 91.4531 8.48438C91.2135 8.56771 91.013 8.6901 90.8516 8.85156C90.6953 9.01302 90.5755 9.21094 90.4922 9.44531C90.4089 9.67448 90.362 9.9349 90.3516 10.2266L89.9062 10.1719C89.9062 9.63542 89.9609 9.13802 90.0703 8.67969C90.1797 8.22135 90.3385 7.82031 90.5469 7.47656C90.7552 7.13281 91.0156 6.86719 91.3281 6.67969C91.6458 6.48698 92.0104 6.39062 92.4219 6.39062C92.5365 6.39062 92.6589 6.40104 92.7891 6.42188C92.9245 6.4375 93.0312 6.46094 93.1094 6.49219ZM97.8828 15.1562C97.2422 15.1562 96.6667 15.0521 96.1562 14.8438C95.6458 14.6354 95.2109 14.3464 94.8516 13.9766C94.4974 13.6016 94.224 13.1667 94.0312 12.6719C93.8438 12.1719 93.75 11.6354 93.75 11.0625V10.75C93.75 10.099 93.8438 9.50781 94.0312 8.97656C94.2188 8.4401 94.4844 7.97917 94.8281 7.59375C95.1719 7.20833 95.5833 6.91146 96.0625 6.70312C96.5417 6.49479 97.0703 6.39062 97.6484 6.39062C98.2474 6.39062 98.776 6.49219 99.2344 6.69531C99.6927 6.89323 100.076 7.17448 100.383 7.53906C100.69 7.90365 100.922 8.34115 101.078 8.85156C101.234 9.35677 101.312 9.91667 101.312 10.5312V11.3984H94.6875V9.97656H99.2812V9.82031C99.2708 9.49219 99.2083 9.19271 99.0938 8.92188C98.9792 8.64583 98.8021 8.42708 98.5625 8.26562C98.3229 8.09896 98.013 8.01562 97.6328 8.01562C97.3255 8.01562 97.0573 8.08333 96.8281 8.21875C96.6042 8.34896 96.4167 8.53646 96.2656 8.78125C96.1198 9.02083 96.0104 9.30729 95.9375 9.64062C95.8646 9.97396 95.8281 10.3438 95.8281 10.75V11.0625C95.8281 11.4167 95.875 11.7448 95.9688 12.0469C96.0677 12.349 96.2109 12.612 96.3984 12.8359C96.5911 13.0547 96.8203 13.2266 97.0859 13.3516C97.3568 13.4714 97.6641 13.5312 98.0078 13.5312C98.4401 13.5312 98.8307 13.4479 99.1797 13.2812C99.5339 13.1094 99.8411 12.8568 100.102 12.5234L101.141 13.6016C100.964 13.862 100.724 14.112 100.422 14.3516C100.125 14.5911 99.7656 14.7865 99.3438 14.9375C98.9219 15.0833 98.4349 15.1562 97.8828 15.1562ZM107.344 12.6875C107.344 12.5104 107.297 12.3516 107.203 12.2109C107.109 12.0703 106.932 11.9427 106.672 11.8281C106.417 11.7083 106.042 11.5964 105.547 11.4922C105.109 11.3984 104.706 11.2812 104.336 11.1406C103.966 11 103.648 10.8307 103.383 10.6328C103.117 10.4297 102.909 10.1927 102.758 9.92188C102.612 9.64583 102.539 9.32812 102.539 8.96875C102.539 8.61979 102.615 8.29167 102.766 7.98438C102.917 7.67188 103.135 7.39844 103.422 7.16406C103.708 6.92448 104.057 6.73698 104.469 6.60156C104.88 6.46094 105.344 6.39062 105.859 6.39062C106.578 6.39062 107.195 6.50781 107.711 6.74219C108.232 6.97656 108.63 7.29948 108.906 7.71094C109.182 8.11719 109.32 8.57552 109.32 9.08594H107.258C107.258 8.86198 107.206 8.65885 107.102 8.47656C107.003 8.29427 106.849 8.14844 106.641 8.03906C106.432 7.92448 106.169 7.86719 105.852 7.86719C105.565 7.86719 105.323 7.91406 105.125 8.00781C104.932 8.10156 104.786 8.22396 104.688 8.375C104.589 8.52604 104.539 8.69271 104.539 8.875C104.539 9.01042 104.565 9.13281 104.617 9.24219C104.674 9.34635 104.766 9.44271 104.891 9.53125C105.016 9.61979 105.185 9.70052 105.398 9.77344C105.617 9.84635 105.885 9.91667 106.203 9.98438C106.833 10.1094 107.383 10.276 107.852 10.4844C108.326 10.6875 108.695 10.9583 108.961 11.2969C109.227 11.6354 109.359 12.0677 109.359 12.5938C109.359 12.9688 109.279 13.3125 109.117 13.625C108.956 13.9323 108.721 14.2005 108.414 14.4297C108.107 14.6589 107.74 14.8385 107.312 14.9688C106.885 15.0938 106.404 15.1562 105.867 15.1562C105.091 15.1562 104.435 15.0182 103.898 14.7422C103.362 14.4609 102.956 14.1068 102.68 13.6797C102.404 13.2474 102.266 12.7995 102.266 12.3359H104.242C104.258 12.6641 104.346 12.9271 104.508 13.125C104.669 13.3229 104.872 13.4661 105.117 13.5547C105.367 13.638 105.63 13.6797 105.906 13.6797C106.219 13.6797 106.482 13.638 106.695 13.5547C106.909 13.4661 107.07 13.349 107.18 13.2031C107.289 13.0521 107.344 12.8802 107.344 12.6875ZM115.578 12.6875C115.578 12.5104 115.531 12.3516 115.438 12.2109C115.344 12.0703 115.167 11.9427 114.906 11.8281C114.651 11.7083 114.276 11.5964 113.781 11.4922C113.344 11.3984 112.94 11.2812 112.57 11.1406C112.201 11 111.883 10.8307 111.617 10.6328C111.352 10.4297 111.143 10.1927 110.992 9.92188C110.846 9.64583 110.773 9.32812 110.773 8.96875C110.773 8.61979 110.849 8.29167 111 7.98438C111.151 7.67188 111.37 7.39844 111.656 7.16406C111.943 6.92448 112.292 6.73698 112.703 6.60156C113.115 6.46094 113.578 6.39062 114.094 6.39062C114.812 6.39062 115.43 6.50781 115.945 6.74219C116.466 6.97656 116.865 7.29948 117.141 7.71094C117.417 8.11719 117.555 8.57552 117.555 9.08594H115.492C115.492 8.86198 115.44 8.65885 115.336 8.47656C115.237 8.29427 115.083 8.14844 114.875 8.03906C114.667 7.92448 114.404 7.86719 114.086 7.86719C113.799 7.86719 113.557 7.91406 113.359 8.00781C113.167 8.10156 113.021 8.22396 112.922 8.375C112.823 8.52604 112.773 8.69271 112.773 8.875C112.773 9.01042 112.799 9.13281 112.852 9.24219C112.909 9.34635 113 9.44271 113.125 9.53125C113.25 9.61979 113.419 9.70052 113.633 9.77344C113.852 9.84635 114.12 9.91667 114.438 9.98438C115.068 10.1094 115.617 10.276 116.086 10.4844C116.56 10.6875 116.93 10.9583 117.195 11.2969C117.461 11.6354 117.594 12.0677 117.594 12.5938C117.594 12.9688 117.513 13.3125 117.352 13.625C117.19 13.9323 116.956 14.2005 116.648 14.4297C116.341 14.6589 115.974 14.8385 115.547 14.9688C115.12 15.0938 114.638 15.1562 114.102 15.1562C113.326 15.1562 112.669 15.0182 112.133 14.7422C111.596 14.4609 111.19 14.1068 110.914 13.6797C110.638 13.2474 110.5 12.7995 110.5 12.3359H112.477C112.492 12.6641 112.581 12.9271 112.742 13.125C112.904 13.3229 113.107 13.4661 113.352 13.5547C113.602 13.638 113.865 13.6797 114.141 13.6797C114.453 13.6797 114.716 13.638 114.93 13.5547C115.143 13.4661 115.305 13.349 115.414 13.2031C115.523 13.0521 115.578 12.8802 115.578 12.6875ZM119.25 13.9922C119.25 13.6797 119.357 13.4167 119.57 13.2031C119.784 12.9896 120.073 12.8828 120.438 12.8828C120.802 12.8828 121.091 12.9896 121.305 13.2031C121.518 13.4167 121.625 13.6797 121.625 13.9922C121.625 14.2995 121.518 14.5599 121.305 14.7734C121.091 14.9818 120.802 15.0859 120.438 15.0859C120.073 15.0859 119.784 14.9818 119.57 14.7734C119.357 14.5599 119.25 14.2995 119.25 13.9922ZM123.797 13.9922C123.797 13.6797 123.904 13.4167 124.117 13.2031C124.331 12.9896 124.62 12.8828 124.984 12.8828C125.349 12.8828 125.638 12.9896 125.852 13.2031C126.065 13.4167 126.172 13.6797 126.172 13.9922C126.172 14.2995 126.065 14.5599 125.852 14.7734C125.638 14.9818 125.349 15.0859 124.984 15.0859C124.62 15.0859 124.331 14.9818 124.117 14.7734C123.904 14.5599 123.797 14.2995 123.797 13.9922ZM128.344 13.9922C128.344 13.6797 128.451 13.4167 128.664 13.2031C128.878 12.9896 129.167 12.8828 129.531 12.8828C129.896 12.8828 130.185 12.9896 130.398 13.2031C130.612 13.4167 130.719 13.6797 130.719 13.9922C130.719 14.2995 130.612 14.5599 130.398 14.7734C130.185 14.9818 129.896 15.0859 129.531 15.0859C129.167 15.0859 128.878 14.9818 128.664 14.7734C128.451 14.5599 128.344 14.2995 128.344 13.9922Z" fill="#1E2832" fill-opacity="0.5"/>
</svg>
