<svg width="115" height="32" viewBox="0 0 115 32" fill="none" xmlns="http://www.w3.org/2000/svg">
<path d="M33.6562 3.15625C33.4375 3 33.125 2.96875 32.875 3.125L18.375 11.375C18.125 11.5 17.9688 11.7812 18 12.0625C18 12.3438 18.1875 12.5938 18.4375 12.7188L23.25 14.7188V18.25C23.25 18.5312 23.375 18.7812 23.625 18.9375C23.75 18.9688 23.875 19 23.9688 19C24.0938 19 24.25 18.9688 24.375 18.9062L27.8438 16.6562L30.9062 17.9688C31 18 31.0938 18.0312 31.2188 18.0312C31.3438 18.0312 31.4688 17.9688 31.5625 17.9062C31.7812 17.8125 31.9062 17.5938 31.9375 17.375L33.9375 3.875C34.0312 3.59375 33.9062 3.3125 33.6562 3.15625ZM29.5312 6.75L23.6875 13.2812L20.4375 11.9062L29.5312 6.75ZM24.7188 16.875V15.3438L26.1562 15.9688L24.7188 16.875ZM30.625 16.1875L25.125 13.875L32.125 6.09375L30.625 16.1875Z" fill="#1E2832"/>
<path d="M48.2734 13.9609C48.2734 14.638 48.1042 15.2161 47.7656 15.6953C47.4323 16.1693 46.9635 16.5312 46.3594 16.7812C45.7552 17.0312 45.0443 17.1562 44.2266 17.1562C43.7943 17.1562 43.3854 17.1354 43 17.0938C42.6146 17.0521 42.2604 16.9922 41.9375 16.9141C41.6146 16.8359 41.3307 16.7396 41.0859 16.625V15.3516C41.4766 15.513 41.9531 15.6641 42.5156 15.8047C43.0781 15.9401 43.6667 16.0078 44.2812 16.0078C44.8542 16.0078 45.3385 15.9323 45.7344 15.7812C46.1302 15.625 46.4297 15.4036 46.6328 15.1172C46.8411 14.8255 46.9453 14.4766 46.9453 14.0703C46.9453 13.6797 46.8594 13.3542 46.6875 13.0938C46.5156 12.8281 46.2292 12.5885 45.8281 12.375C45.4323 12.1562 44.8906 11.9245 44.2031 11.6797C43.7188 11.5078 43.2917 11.3203 42.9219 11.1172C42.5521 10.9089 42.2422 10.6745 41.9922 10.4141C41.7422 10.1536 41.5521 9.85156 41.4219 9.50781C41.2969 9.16406 41.2344 8.77083 41.2344 8.32812C41.2344 7.71875 41.388 7.19792 41.6953 6.76562C42.0078 6.32812 42.4375 5.99479 42.9844 5.76562C43.5365 5.53125 44.1693 5.41406 44.8828 5.41406C45.4922 5.41406 46.0547 5.47135 46.5703 5.58594C47.0911 5.70052 47.5677 5.85417 48 6.04688L47.5859 7.1875C47.1745 7.01562 46.737 6.8724 46.2734 6.75781C45.8151 6.64323 45.3411 6.58594 44.8516 6.58594C44.362 6.58594 43.9479 6.65885 43.6094 6.80469C43.276 6.94531 43.0208 7.14583 42.8438 7.40625C42.6667 7.66667 42.5781 7.97656 42.5781 8.33594C42.5781 8.73698 42.6615 9.07031 42.8281 9.33594C43 9.60156 43.2708 9.83854 43.6406 10.0469C44.0156 10.25 44.5104 10.4635 45.125 10.6875C45.7969 10.9323 46.3672 11.1927 46.8359 11.4688C47.3047 11.7396 47.6615 12.0729 47.9062 12.4688C48.151 12.8594 48.2734 13.3568 48.2734 13.9609ZM59.25 5.57812V12.9688C59.25 13.776 59.0859 14.4948 58.7578 15.125C58.4349 15.7552 57.9453 16.2526 57.2891 16.6172C56.6328 16.9766 55.8099 17.1562 54.8203 17.1562C53.4089 17.1562 52.3333 16.7734 51.5938 16.0078C50.8594 15.2422 50.4922 14.2188 50.4922 12.9375V5.57812H51.8281V12.9766C51.8281 13.9453 52.0833 14.6927 52.5938 15.2188C53.1094 15.7448 53.8776 16.0078 54.8984 16.0078C55.5964 16.0078 56.1667 15.8828 56.6094 15.6328C57.0573 15.3776 57.388 15.0234 57.6016 14.5703C57.8203 14.112 57.9297 13.5833 57.9297 12.9844V5.57812H59.25ZM62.2812 5.57812H65.5156C66.9427 5.57812 68.0156 5.79167 68.7344 6.21875C69.4531 6.64583 69.8125 7.3724 69.8125 8.39844C69.8125 8.84115 69.7266 9.23958 69.5547 9.59375C69.388 9.94271 69.1432 10.2318 68.8203 10.4609C68.4974 10.6901 68.099 10.849 67.625 10.9375V11.0156C68.125 11.0938 68.5677 11.237 68.9531 11.4453C69.3385 11.6536 69.6406 11.9453 69.8594 12.3203C70.0781 12.6953 70.1875 13.1719 70.1875 13.75C70.1875 14.4531 70.0234 15.0469 69.6953 15.5312C69.3724 16.0156 68.9141 16.3828 68.3203 16.6328C67.7266 16.8776 67.0234 17 66.2109 17H62.2812V5.57812ZM63.6094 10.4766H65.7969C66.7917 10.4766 67.4792 10.3125 67.8594 9.98438C68.2448 9.65625 68.4375 9.17708 68.4375 8.54688C68.4375 7.89583 68.2083 7.42708 67.75 7.14062C67.2969 6.85417 66.5729 6.71094 65.5781 6.71094H63.6094V10.4766ZM63.6094 11.5938V15.8672H65.9844C67 15.8672 67.7188 15.6693 68.1406 15.2734C68.5625 14.8724 68.7734 14.3333 68.7734 13.6562C68.7734 13.224 68.6771 12.8542 68.4844 12.5469C68.2969 12.2396 67.9896 12.0052 67.5625 11.8438C67.1406 11.6771 66.5755 11.5938 65.8672 11.5938H63.6094ZM77.6484 17L73.8125 6.89062H73.75C73.7708 7.10417 73.7891 7.36458 73.8047 7.67188C73.8203 7.97917 73.8333 8.3151 73.8438 8.67969C73.8542 9.03906 73.8594 9.40625 73.8594 9.78125V17H72.625V5.57812H74.5938L78.2109 15.0781H78.2656L81.9375 5.57812H83.8906V17H82.5781V9.6875C82.5781 9.34896 82.5833 9.01042 82.5938 8.67188C82.6042 8.32812 82.6172 8.00521 82.6328 7.70312C82.6484 7.39583 82.6641 7.13021 82.6797 6.90625H82.6172L78.7344 17H77.6484ZM87.0156 17V5.57812H88.3438V17H87.0156ZM94.9922 17H93.6562V6.75H90.0625V5.57812H98.5703V6.75H94.9922V17Z" fill="#1E2832"/>
<line x1="8.74228e-08" y1="31" x2="115" y2="31" stroke="#1E2832" stroke-width="2"/>
</svg>
